{
  "header": {
    "PPQ": 384,
    "timeSignature": [
      4,
      4
    ],
    "bpm": 110.00011000011,
    "name": ""
  },
  "tempo": [
    {
      "absoluteTime": 0,
      "seconds": 0,
      "bpm": 110.00011000011
    }
  ],
  "timeSignature": [
    {
      "absoluteTime": 0,
      "seconds": 0,
      "numerator": 4,
      "denominator": 2,
      "click": 24,
      "notesQ": 8
    }
  ],
  "startTime": 0.336647390625,
  "duration": 15.024132703124998,
  "tracks": [
    {
      "startTime": 0.336647390625,
      "duration": 15.024132703124998,
      "length": 25,
      "notes": [
        {
          "name": "G4",
          "midi": 67,
          "time": 0.336647390625,
          "velocity": 0.3937007874015748,
          "duration": 0.24573839062499997
        },
        {
          "name": "G4",
          "midi": 67,
          "time": 0.720169734375,
          "velocity": 0.3937007874015748,
          "duration": 0.11221579687499994
        },
        {
          "name": "A4",
          "midi": 69,
          "time": 0.9076695468749999,
          "velocity": 0.3937007874015748,
          "duration": 0.41619276562500007
        },
        {
          "name": "G4",
          "midi": 67,
          "time": 1.478691703125,
          "velocity": 0.3937007874015748,
          "duration": 0.3522723750000001
        },
        {
          "name": "C5",
          "midi": 72,
          "time": 2.0696002031250003,
          "velocity": 0.3937007874015748,
          "duration": 0.4005677812499999
        },
        {
          "name": "B4",
          "midi": 71,
          "time": 2.637781453125,
          "velocity": 0.3937007874015748,
          "duration": 0.848010515625
        },
        {
          "name": "G4",
          "midi": 67,
          "time": 3.737212171875,
          "velocity": 0.3937007874015748,
          "duration": 0.28835198437499976
        },
        {
          "name": "G4",
          "midi": 67,
          "time": 4.134939046875,
          "velocity": 0.3937007874015748,
          "duration": 0.08806809374999958
        },
        {
          "name": "A4",
          "midi": 69,
          "time": 4.326700218749999,
          "velocity": 0.3937007874015748,
          "duration": 0.359374640625
        },
        {
          "name": "G4",
          "midi": 67,
          "time": 4.853688328124999,
          "velocity": 0.3937007874015748,
          "duration": 0.2869315312499996
        },
        {
          "name": "D5",
          "midi": 74,
          "time": 5.362210546874999,
          "velocity": 0.3937007874015748,
          "duration": 0.44034046874999966
        },
        {
          "name": "C5",
          "midi": 72,
          "time": 5.9105054531249985,
          "velocity": 0.3937007874015748,
          "duration": 0.7045447500000002
        },
        {
          "name": "G4",
          "midi": 67,
          "time": 6.953118046874999,
          "velocity": 0.3937007874015748,
          "duration": 0.21448842187500006
        },
        {
          "name": "G4",
          "midi": 67,
          "time": 7.305390421874999,
          "velocity": 0.3937007874015748,
          "duration": 0.11931806249999966
        },
        {
          "name": "G5",
          "midi": 79,
          "time": 7.487208421874999,
          "velocity": 0.3937007874015748,
          "duration": 0.359374640625
        },
        {
          "name": "E5",
          "midi": 76,
          "time": 8.056810124999998,
          "velocity": 0.3937007874015748,
          "duration": 0.37642007812499934
        },
        {
          "name": "C5",
          "midi": 72,
          "time": 8.590900499999998,
          "velocity": 0.3937007874015748,
          "duration": 0.3991473281250002
        },
        {
          "name": "B4",
          "midi": 71,
          "time": 9.142036312499998,
          "velocity": 0.3937007874015748,
          "duration": 0.5795448749999998
        },
        {
          "name": "A4",
          "midi": 69,
          "time": 9.664763062499999,
          "velocity": 0.3937007874015748,
          "duration": 0.7017038437499998
        },
        {
          "name": "F5",
          "midi": 77,
          "time": 10.664762062499998,
          "velocity": 0.3937007874015748,
          "duration": 0.2343747656250006
        },
        {
          "name": "F5",
          "midi": 77,
          "time": 11.028398062499999,
          "velocity": 0.3937007874015748,
          "duration": 0.10369307812499962
        },
        {
          "name": "E5",
          "midi": 76,
          "time": 11.245727390625,
          "velocity": 0.3937007874015748,
          "duration": 0.48863587499999994
        },
        {
          "name": "C5",
          "midi": 72,
          "time": 11.8124881875,
          "velocity": 0.3937007874015748,
          "duration": 0.5582380781249991
        },
        {
          "name": "D5",
          "midi": 74,
          "time": 12.3465785625,
          "velocity": 0.3937007874015748,
          "duration": 0.6051130312499993
        },
        {
          "name": "C5",
          "midi": 72,
          "time": 12.982941562499999,
          "velocity": 0.3937007874015748,
          "duration": 2.041191140624999
        }
      ],
      "controlChanges": {},
      "id": 0,
      "name": "Electric Piano",
      "instrumentNumber": 0,
      "instrument": "acoustic grand piano",
      "instrumentFamily": "piano",
      "channelNumber": 0,
      "isPercussion": false
    }
  ]
}